# xmcd
#
# Track frame offsets:
# 150
# 16101
# 36993
# 62007
# 87607
# 115383
# 131073
# 142281
# 161922
# 182526
# 205115
# 218189
# 242910
# 256252
# 282170
# 295062
#
# Disc length: 4242 seconds
#
#
# Revision: 1
# Processed by: cddbd v1.5.2PL0 Copyright (c) Steve Scherf et al.
# Submitted via: FreeRIP 2.96 
#
DISCID=f9109010
DTITLE=Paul Auster - Timbuktu CD 02
DYEAR=2002
DGENRE=Hörbuch
TTITLE0=14 Timbuktu
TTITLE1=15 Timbuktu
TTITLE2=16 Timbuktu
TTITLE3=17 Timbuktu
TTITLE4=18 Timbuktu
TTITLE5=19 Timbuktu
TTITLE6=20 Timbuktu
TTITLE7=21 Timbuktu
TTITLE8=22 Timbuktu
TTITLE9=23 Timbuktu
TTITLE10=24 Timbuktu
TTITLE11=25 Timbuktu
TTITLE12=26 Timbuktu
TTITLE13=27 Timbuktu
TTITLE14=28 Timbuktu
TTITLE15=29 Timbuktu
EXTD=Gelesen von Dietmar Mues
EXTT0=
EXTT1=
EXTT2=
EXTT3=
EXTT4=
EXTT5=
EXTT6=
EXTT7=
EXTT8=
EXTT9=
EXTT10=
EXTT11=
EXTT12=
EXTT13=
EXTT14=
EXTT15=
PLAYORDER=
